%
M48
M72
T01C0.0080
T02C0.0118
T03C0.0400
T04C0.0405
%
T01
X1461Y1641
X2334Y2396
X1868Y2704
X1836Y3110
X1944Y3516
X1740Y3798
X1555Y4079
X1386Y4579
X1836Y5235
X2211Y6048
X1399Y6516
X1399Y7016
X2993Y5954
X2649Y5228
X2959Y5033
X2928Y4641
X3410Y4806
X3740Y4454
X4069Y4616
X4211Y4121
X4575Y4224
X4835Y4484
X5993Y4891
X6805Y4704
X8384Y4719
X8899Y3641
X8899Y2766
X9774Y2766
X9774Y3641
X10649Y5391
X10274Y5641
X10586Y6110
X9430Y6235
X10654Y7516
X10654Y8641
X7757Y9969
X6305Y10941
X5743Y9516
X5384Y8711
X5368Y7954
X4461Y7829
X4364Y9141
X2884Y10130
X2504Y10130
X1555Y9360
X4074Y6371
X4594Y6369
X5680Y6361
X6586Y7266
X6993Y7661
X7680Y6954
X7680Y6360
X6493Y8446
X7786Y3031
X7814Y2671
X7599Y2381
X8254Y1829
X9554Y1641
X9914Y1641
X6405Y1829
X5204Y2016
X4744Y1976
X4384Y1985
X4294Y2751
T02
X3388Y3033
X3093Y3033
X2797Y3033
X2797Y3329
X2797Y3624
X3093Y3624
X3388Y3624
X3388Y3329
X3093Y3329
T03
X6524Y5211
X6524Y6011
X8524Y5611
T04
X3524Y5611
M30
