G75*
%MOIN*%
%OFA0B0*%
%FSLAX25Y25*%
%IPPOS*%
%LPD*%
%AMOC8*
5,1,8,0,0,1.08239X$1,22.5*
%
%ADD10R,0.02372X0.03750*%
%ADD11R,0.04537X0.03750*%
%ADD12R,0.03159X0.01584*%
%ADD13R,0.03750X0.06112*%
%ADD14R,0.06506X0.05718*%
%ADD15R,0.02962X0.03356*%
%ADD16R,0.03356X0.02962*%
%ADD17R,0.03750X0.04537*%
%ADD18R,0.05718X0.06506*%
%ADD19R,0.02765X0.01978*%
%ADD20R,0.02175X0.03750*%
%ADD21R,0.01978X0.02765*%
%ADD22R,0.10639X0.05128*%
%ADD23C,0.01702*%
%ADD24R,0.08868X0.08868*%
%ADD25C,0.04650*%
%ADD26R,0.04931X0.06506*%
%ADD27R,0.02750X0.02710*%
%ADD28C,0.01400*%
%ADD29R,0.18710X0.18710*%
%ADD30C,0.01466*%
%ADD31R,0.02710X0.02750*%
%ADD32R,0.03750X0.04143*%
%ADD33C,0.04600*%
%ADD34R,0.03946X0.01978*%
%ADD35R,0.06112X0.03750*%
%ADD36R,0.03750X0.10049*%
%ADD37R,0.04537X0.02569*%
D10*
X0024578Y0105113D03*
X0024578Y0108913D03*
X0029500Y0108913D03*
X0029500Y0105113D03*
D11*
X0033039Y0102737D03*
X0033039Y0108839D03*
D12*
X0053293Y0102722D03*
X0053293Y0100163D03*
X0053293Y0097604D03*
X0061560Y0097604D03*
X0061560Y0100163D03*
X0061560Y0102722D03*
D13*
X0057426Y0100163D03*
D14*
X0068039Y0098223D03*
X0068039Y0105703D03*
D15*
X0063304Y0105913D03*
X0058974Y0105913D03*
X0055807Y0105913D03*
X0051870Y0105913D03*
X0048507Y0104713D03*
X0048507Y0108063D03*
X0044570Y0108063D03*
X0044570Y0104713D03*
X0047070Y0091100D03*
X0046395Y0087663D03*
X0050332Y0087663D03*
X0051007Y0091100D03*
X0054520Y0091413D03*
X0058457Y0091413D03*
X0061083Y0076725D03*
X0065020Y0076725D03*
X0073583Y0077350D03*
X0073645Y0073788D03*
X0077520Y0077350D03*
X0077582Y0073788D03*
X0074082Y0059475D03*
X0070145Y0059475D03*
X0056895Y0052663D03*
X0052958Y0052663D03*
X0049707Y0048313D03*
X0045770Y0048313D03*
X0046404Y0060213D03*
X0042074Y0060213D03*
X0049520Y0063288D03*
X0053457Y0063288D03*
X0055332Y0067350D03*
X0055332Y0070788D03*
X0051395Y0070788D03*
X0051395Y0067350D03*
X0021907Y0045788D03*
X0017970Y0045788D03*
X0018457Y0057975D03*
X0018457Y0061338D03*
X0014520Y0061338D03*
X0014520Y0057975D03*
X0013695Y0073763D03*
X0017632Y0073763D03*
X0044495Y0016288D03*
X0048432Y0016288D03*
X0102670Y0016413D03*
X0106607Y0016413D03*
D16*
X0019076Y0016519D03*
X0019076Y0020456D03*
X0023989Y0020444D03*
X0023989Y0016507D03*
X0028639Y0016507D03*
X0028639Y0020444D03*
X0055551Y0020453D03*
X0055551Y0016122D03*
X0071539Y0016344D03*
X0071539Y0020281D03*
X0045239Y0052685D03*
X0045239Y0057016D03*
X0048039Y0067044D03*
X0048039Y0070981D03*
X0057426Y0075382D03*
X0057426Y0079319D03*
X0057439Y0082744D03*
X0057439Y0086681D03*
X0068539Y0084081D03*
X0069614Y0087569D03*
X0069614Y0091506D03*
X0068539Y0080144D03*
X0049926Y0096319D03*
X0049926Y0100256D03*
X0045551Y0100256D03*
X0045551Y0096319D03*
X0017076Y0089944D03*
X0013701Y0089944D03*
X0013701Y0086007D03*
X0017076Y0086007D03*
X0017639Y0068806D03*
X0017639Y0064869D03*
D17*
X0039888Y0024013D03*
X0045990Y0024013D03*
X0073388Y0104225D03*
X0073575Y0108850D03*
X0079678Y0108850D03*
X0079490Y0104225D03*
D18*
G36*
X0078482Y0092559D02*
X0077775Y0086885D01*
X0071320Y0087689D01*
X0072027Y0093363D01*
X0078482Y0092559D01*
G37*
G36*
X0077558Y0085136D02*
X0076851Y0079462D01*
X0070396Y0080266D01*
X0071103Y0085940D01*
X0077558Y0085136D01*
G37*
D19*
X0057104Y0060534D03*
X0057104Y0055416D03*
X0049624Y0055416D03*
X0049624Y0057975D03*
X0049624Y0060534D03*
D20*
X0050893Y0074582D03*
X0048334Y0074582D03*
X0045775Y0074582D03*
X0053453Y0074582D03*
X0053453Y0083243D03*
X0050893Y0083243D03*
X0048334Y0083243D03*
X0045775Y0083243D03*
D21*
X0060680Y0080173D03*
X0065798Y0080173D03*
X0065798Y0087653D03*
X0063239Y0087653D03*
X0060680Y0087653D03*
D22*
X0017739Y0098474D03*
X0017739Y0107726D03*
D23*
X0026005Y0042185D02*
X0026005Y0039941D01*
X0027974Y0039941D02*
X0027974Y0042185D01*
X0029942Y0042185D02*
X0029942Y0039941D01*
X0031911Y0039941D02*
X0031911Y0042185D01*
X0033879Y0042185D02*
X0033879Y0039941D01*
X0035848Y0039941D02*
X0035848Y0042185D01*
X0037580Y0038209D02*
X0039824Y0038209D01*
X0039824Y0036240D02*
X0037580Y0036240D01*
X0037580Y0034272D02*
X0039824Y0034272D01*
X0039824Y0032303D02*
X0037580Y0032303D01*
X0037580Y0030335D02*
X0039824Y0030335D01*
X0039824Y0028366D02*
X0037580Y0028366D01*
X0035848Y0026634D02*
X0035848Y0024390D01*
X0033879Y0024390D02*
X0033879Y0026634D01*
X0031911Y0026634D02*
X0031911Y0024390D01*
X0029942Y0024390D02*
X0029942Y0026634D01*
X0027974Y0026634D02*
X0027974Y0024390D01*
X0026005Y0024390D02*
X0026005Y0026634D01*
X0024273Y0028366D02*
X0022029Y0028366D01*
X0022029Y0030335D02*
X0024273Y0030335D01*
X0024273Y0032303D02*
X0022029Y0032303D01*
X0022029Y0034272D02*
X0024273Y0034272D01*
X0024273Y0036240D02*
X0022029Y0036240D01*
X0022029Y0038209D02*
X0024273Y0038209D01*
D24*
X0030926Y0033288D03*
D25*
X0035239Y0056113D03*
D26*
X0032792Y0017963D03*
X0039485Y0017963D03*
D27*
X0073989Y0026583D03*
X0073989Y0029993D03*
X0080639Y0047170D03*
X0080639Y0050580D03*
X0087114Y0051118D03*
X0087114Y0047708D03*
X0060039Y0062158D03*
X0060039Y0065568D03*
D28*
X0080653Y0040637D02*
X0083003Y0040637D01*
X0083003Y0039062D02*
X0080653Y0039062D01*
X0080653Y0037487D02*
X0083003Y0037487D01*
X0083003Y0035912D02*
X0080653Y0035912D01*
X0080653Y0034337D02*
X0083003Y0034337D01*
X0083003Y0032763D02*
X0080653Y0032763D01*
X0080653Y0031188D02*
X0083003Y0031188D01*
X0083003Y0029613D02*
X0080653Y0029613D01*
X0080653Y0028038D02*
X0083003Y0028038D01*
X0083003Y0026463D02*
X0080653Y0026463D01*
X0080653Y0024889D02*
X0083003Y0024889D01*
X0083003Y0023314D02*
X0080653Y0023314D01*
X0084978Y0021339D02*
X0084978Y0018989D01*
X0086552Y0018989D02*
X0086552Y0021339D01*
X0088127Y0021339D02*
X0088127Y0018989D01*
X0089702Y0018989D02*
X0089702Y0021339D01*
X0091277Y0021339D02*
X0091277Y0018989D01*
X0092852Y0018989D02*
X0092852Y0021339D01*
X0094426Y0021339D02*
X0094426Y0018989D01*
X0096001Y0018989D02*
X0096001Y0021339D01*
X0097576Y0021339D02*
X0097576Y0018989D01*
X0099151Y0018989D02*
X0099151Y0021339D01*
X0100726Y0021339D02*
X0100726Y0018989D01*
X0102300Y0018989D02*
X0102300Y0021339D01*
X0104275Y0023314D02*
X0106625Y0023314D01*
X0106625Y0024889D02*
X0104275Y0024889D01*
X0104275Y0026463D02*
X0106625Y0026463D01*
X0106625Y0028038D02*
X0104275Y0028038D01*
X0104275Y0029613D02*
X0106625Y0029613D01*
X0106625Y0031188D02*
X0104275Y0031188D01*
X0104275Y0032763D02*
X0106625Y0032763D01*
X0106625Y0034337D02*
X0104275Y0034337D01*
X0104275Y0035912D02*
X0106625Y0035912D01*
X0106625Y0037487D02*
X0104275Y0037487D01*
X0104275Y0039062D02*
X0106625Y0039062D01*
X0106625Y0040637D02*
X0104275Y0040637D01*
X0102300Y0042611D02*
X0102300Y0044961D01*
X0100726Y0044961D02*
X0100726Y0042611D01*
X0099151Y0042611D02*
X0099151Y0044961D01*
X0097576Y0044961D02*
X0097576Y0042611D01*
X0096001Y0042611D02*
X0096001Y0044961D01*
X0094426Y0044961D02*
X0094426Y0042611D01*
X0092852Y0042611D02*
X0092852Y0044961D01*
X0091277Y0044961D02*
X0091277Y0042611D01*
X0089702Y0042611D02*
X0089702Y0044961D01*
X0088127Y0044961D02*
X0088127Y0042611D01*
X0086552Y0042611D02*
X0086552Y0044961D01*
X0084978Y0044961D02*
X0084978Y0042611D01*
D29*
X0093639Y0031975D03*
D30*
X0092786Y0047111D03*
X0090817Y0047111D03*
X0090817Y0049497D03*
X0092786Y0049497D03*
X0091801Y0051339D03*
D31*
X0096109Y0050188D03*
X0096109Y0052988D03*
X0099519Y0052988D03*
X0099519Y0050188D03*
X0099519Y0047388D03*
X0096109Y0047388D03*
X0102284Y0047350D03*
X0105694Y0047350D03*
X0077569Y0040238D03*
X0077569Y0036863D03*
X0077569Y0033488D03*
X0074159Y0033488D03*
X0074159Y0036863D03*
X0074159Y0040238D03*
D32*
X0072036Y0045257D03*
X0076367Y0045257D03*
X0076367Y0050769D03*
X0072036Y0050769D03*
D33*
X0065239Y0052113D03*
X0065239Y0060113D03*
X0085239Y0056113D03*
D34*
X0070195Y0066041D03*
X0070195Y0071159D03*
X0061533Y0068600D03*
X0059221Y0020847D03*
X0059221Y0015729D03*
X0067882Y0018288D03*
D35*
X0038539Y0101351D03*
X0038539Y0107099D03*
D36*
X0093246Y0105813D03*
X0106632Y0105813D03*
D37*
X0078851Y0020873D03*
X0078851Y0015950D03*
M02*
