G75*
%MOIN*%
%OFA0B0*%
%FSLAX25Y25*%
%IPPOS*%
%LPD*%
%AMOC8*
5,1,8,0,0,1.08239X$1,22.5*
%
%ADD10C,0.02781*%
%ADD11C,0.02400*%
%ADD12C,0.00800*%
%ADD13C,0.01000*%
D10*
X0027974Y0030335D03*
X0030926Y0030335D03*
X0033879Y0030335D03*
X0033879Y0033288D03*
X0033879Y0036240D03*
X0030926Y0036240D03*
X0030926Y0033288D03*
X0027974Y0033288D03*
X0027974Y0036240D03*
D11*
X0019439Y0035163D03*
X0017401Y0037975D03*
X0015551Y0040788D03*
X0013864Y0045788D03*
X0018364Y0052350D03*
X0022114Y0060475D03*
X0013989Y0065163D03*
X0013989Y0070163D03*
X0029926Y0059538D03*
X0026489Y0052275D03*
X0029589Y0050325D03*
X0029276Y0046413D03*
X0034101Y0048063D03*
X0037401Y0044538D03*
X0040689Y0046163D03*
X0042114Y0041213D03*
X0045751Y0042238D03*
X0048351Y0044838D03*
X0059926Y0048913D03*
X0068051Y0047038D03*
X0083839Y0047188D03*
X0088989Y0036413D03*
X0097739Y0036413D03*
X0097739Y0027663D03*
X0088989Y0027663D03*
X0082539Y0018288D03*
X0075989Y0023813D03*
X0078139Y0026713D03*
X0077864Y0030313D03*
X0064051Y0018288D03*
X0052039Y0020163D03*
X0047439Y0019763D03*
X0043839Y0019850D03*
X0042939Y0027508D03*
X0023339Y0023963D03*
X0018676Y0027038D03*
X0018364Y0031100D03*
X0014614Y0016413D03*
X0040739Y0063713D03*
X0045939Y0063688D03*
X0056801Y0063613D03*
X0065864Y0072663D03*
X0069926Y0076613D03*
X0076801Y0069538D03*
X0076801Y0063600D03*
X0094301Y0062350D03*
X0102739Y0056413D03*
X0106489Y0053913D03*
X0105864Y0061100D03*
X0106539Y0075163D03*
X0106539Y0086413D03*
X0077575Y0099686D03*
X0063051Y0109413D03*
X0057426Y0095163D03*
X0053839Y0087113D03*
X0053676Y0079538D03*
X0044614Y0078288D03*
X0043639Y0091413D03*
X0028839Y0101300D03*
X0025039Y0101300D03*
X0015551Y0093600D03*
X0064926Y0084463D03*
X0095539Y0016413D03*
X0099139Y0016413D03*
D12*
X0012683Y0015330D02*
X0012656Y0015357D01*
X0012641Y0015393D01*
X0012639Y0015413D01*
X0012639Y0043901D01*
X0012953Y0043588D01*
X0014775Y0043588D01*
X0016064Y0044876D01*
X0016064Y0046699D01*
X0014775Y0047988D01*
X0012953Y0047988D01*
X0012639Y0047674D01*
X0012639Y0063401D01*
X0013078Y0062963D01*
X0014900Y0062963D01*
X0016189Y0064251D01*
X0016189Y0066074D01*
X0014900Y0067363D01*
X0013078Y0067363D01*
X0012639Y0066924D01*
X0012639Y0068401D01*
X0013078Y0067963D01*
X0014900Y0067963D01*
X0016189Y0069251D01*
X0016189Y0071074D01*
X0014900Y0072363D01*
X0013078Y0072363D01*
X0012639Y0071924D01*
X0012639Y0110413D01*
X0012641Y0110432D01*
X0012656Y0110468D01*
X0012683Y0110496D01*
X0012719Y0110511D01*
X0012739Y0110513D01*
X0061040Y0110513D01*
X0060851Y0110324D01*
X0060851Y0108501D01*
X0062140Y0107213D01*
X0063963Y0107213D01*
X0065251Y0108501D01*
X0065251Y0110324D01*
X0065063Y0110513D01*
X0080239Y0110513D01*
X0080239Y0100495D01*
X0079775Y0100227D01*
X0079775Y0100597D01*
X0078486Y0101886D01*
X0076663Y0101886D01*
X0075375Y0100597D01*
X0075375Y0098775D01*
X0076663Y0097486D01*
X0078486Y0097486D01*
X0078839Y0097839D01*
X0078839Y0094063D01*
X0044819Y0094063D01*
X0044551Y0096194D01*
X0044551Y0096722D01*
X0044476Y0096797D01*
X0044463Y0096903D01*
X0044046Y0097227D01*
X0041073Y0100200D01*
X0039830Y0100200D01*
X0039730Y0100100D01*
X0030750Y0100100D01*
X0031039Y0100389D01*
X0031039Y0102212D01*
X0029750Y0103500D01*
X0027928Y0103500D01*
X0026939Y0102511D01*
X0025950Y0103500D01*
X0024128Y0103500D01*
X0022839Y0102212D01*
X0022839Y0100389D01*
X0023028Y0100200D01*
X0022843Y0100200D01*
X0017743Y0095100D01*
X0017163Y0095100D01*
X0016463Y0095800D01*
X0014640Y0095800D01*
X0013351Y0094512D01*
X0013351Y0092689D01*
X0014640Y0091400D01*
X0016463Y0091400D01*
X0017163Y0092100D01*
X0018214Y0092100D01*
X0018214Y0068333D01*
X0020714Y0065833D01*
X0021534Y0065013D01*
X0027784Y0065013D01*
X0028839Y0063958D01*
X0029659Y0063138D01*
X0037784Y0063138D01*
X0038409Y0062513D01*
X0038828Y0062513D01*
X0039828Y0061513D01*
X0041650Y0061513D01*
X0042650Y0062513D01*
X0044003Y0062513D01*
X0045028Y0061488D01*
X0046850Y0061488D01*
X0048139Y0062776D01*
X0048139Y0064599D01*
X0047725Y0065013D01*
X0055090Y0065013D01*
X0054601Y0064524D01*
X0054601Y0062701D01*
X0055890Y0061413D01*
X0057713Y0061413D01*
X0059001Y0062701D01*
X0059001Y0064524D01*
X0058513Y0065013D01*
X0078839Y0065013D01*
X0078839Y0064036D01*
X0079616Y0062690D01*
X0079616Y0062690D01*
X0080962Y0061913D01*
X0089516Y0061913D01*
X0090862Y0062690D01*
X0091639Y0064036D01*
X0091639Y0067740D01*
X0095422Y0067405D01*
X0095523Y0067363D01*
X0095895Y0067363D01*
X0096264Y0067330D01*
X0096369Y0067363D01*
X0096868Y0067363D01*
X0098371Y0068230D01*
X0098371Y0068230D01*
X0098371Y0068230D01*
X0099239Y0069733D01*
X0099239Y0078092D01*
X0098371Y0079595D01*
X0096868Y0080463D01*
X0096369Y0080463D01*
X0096264Y0080496D01*
X0095895Y0080463D01*
X0095523Y0080463D01*
X0095422Y0080421D01*
X0091639Y0080085D01*
X0091639Y0082740D01*
X0095422Y0082405D01*
X0095523Y0082363D01*
X0095895Y0082363D01*
X0096264Y0082330D01*
X0096369Y0082363D01*
X0096868Y0082363D01*
X0098371Y0083230D01*
X0098371Y0083230D01*
X0098371Y0083230D01*
X0099239Y0084733D01*
X0099239Y0092725D01*
X0107839Y0092725D01*
X0107839Y0055674D01*
X0107400Y0056113D01*
X0105578Y0056113D01*
X0104289Y0054824D01*
X0104289Y0053001D01*
X0105578Y0051713D01*
X0107400Y0051713D01*
X0107839Y0052151D01*
X0107839Y0015413D01*
X0107837Y0015393D01*
X0107822Y0015357D01*
X0107794Y0015330D01*
X0107758Y0015315D01*
X0107739Y0015313D01*
X0101150Y0015313D01*
X0101339Y0015501D01*
X0101339Y0017324D01*
X0100050Y0018613D01*
X0098228Y0018613D01*
X0097339Y0017724D01*
X0096450Y0018613D01*
X0094628Y0018613D01*
X0093339Y0017324D01*
X0093339Y0015501D01*
X0093528Y0015313D01*
X0012739Y0015313D01*
X0012719Y0015315D01*
X0012683Y0015330D01*
X0012639Y0015935D02*
X0093339Y0015935D01*
X0093339Y0016733D02*
X0084096Y0016733D01*
X0084739Y0017376D02*
X0083450Y0016088D01*
X0081628Y0016088D01*
X0080339Y0017376D01*
X0080339Y0019199D01*
X0081628Y0020488D01*
X0083450Y0020488D01*
X0084739Y0019199D01*
X0084739Y0017376D01*
X0084739Y0017532D02*
X0093547Y0017532D01*
X0094345Y0018330D02*
X0084739Y0018330D01*
X0084739Y0019129D02*
X0107839Y0019129D01*
X0107839Y0019927D02*
X0084011Y0019927D01*
X0081067Y0019927D02*
X0065523Y0019927D01*
X0064963Y0020488D02*
X0066251Y0019199D01*
X0066251Y0017376D01*
X0064963Y0016088D01*
X0063140Y0016088D01*
X0061851Y0017376D01*
X0061851Y0019199D01*
X0063140Y0020488D01*
X0064963Y0020488D01*
X0066251Y0019129D02*
X0080339Y0019129D01*
X0080339Y0018330D02*
X0066251Y0018330D01*
X0066251Y0017532D02*
X0080339Y0017532D01*
X0080982Y0016733D02*
X0065608Y0016733D01*
X0062495Y0016733D02*
X0012639Y0016733D01*
X0012639Y0017532D02*
X0061851Y0017532D01*
X0061851Y0018330D02*
X0053318Y0018330D01*
X0052950Y0017963D02*
X0054239Y0019251D01*
X0054239Y0021074D01*
X0053700Y0021613D01*
X0071116Y0021613D01*
X0072462Y0022390D01*
X0073239Y0023736D01*
X0073239Y0036672D01*
X0071966Y0040588D01*
X0069546Y0043920D01*
X0066214Y0046340D01*
X0062298Y0047613D01*
X0061738Y0047613D01*
X0062126Y0048001D01*
X0062126Y0049003D01*
X0062747Y0048383D01*
X0064364Y0047713D01*
X0066114Y0047713D01*
X0067731Y0048383D01*
X0068969Y0049620D01*
X0069639Y0051238D01*
X0069639Y0052988D01*
X0068969Y0054605D01*
X0067731Y0055843D01*
X0067080Y0056113D01*
X0067731Y0056383D01*
X0068969Y0057620D01*
X0069639Y0059238D01*
X0069639Y0060988D01*
X0068969Y0062605D01*
X0067731Y0063843D01*
X0066114Y0064513D01*
X0064364Y0064513D01*
X0062747Y0063843D01*
X0061509Y0062605D01*
X0060839Y0060988D01*
X0060839Y0059238D01*
X0061509Y0057620D01*
X0062747Y0056383D01*
X0063398Y0056113D01*
X0062747Y0055843D01*
X0061509Y0054605D01*
X0060839Y0052988D01*
X0060839Y0051238D01*
X0060928Y0051022D01*
X0060838Y0051113D01*
X0059015Y0051113D01*
X0057726Y0049824D01*
X0057726Y0048001D01*
X0058131Y0047597D01*
X0054263Y0046340D01*
X0050932Y0043920D01*
X0050932Y0043920D01*
X0050932Y0043920D01*
X0048511Y0040588D01*
X0047239Y0036672D01*
X0047239Y0023736D01*
X0048016Y0022390D01*
X0048016Y0022390D01*
X0049362Y0021613D01*
X0050378Y0021613D01*
X0049839Y0021074D01*
X0049839Y0019251D01*
X0051128Y0017963D01*
X0052950Y0017963D01*
X0054116Y0019129D02*
X0061851Y0019129D01*
X0062580Y0019927D02*
X0054239Y0019927D01*
X0054239Y0020726D02*
X0107839Y0020726D01*
X0107839Y0021524D02*
X0053789Y0021524D01*
X0050289Y0021524D02*
X0045276Y0021524D01*
X0044750Y0022050D02*
X0042928Y0022050D01*
X0041639Y0020762D01*
X0041639Y0018939D01*
X0042928Y0017650D01*
X0044750Y0017650D01*
X0046039Y0018939D01*
X0046039Y0020762D01*
X0044750Y0022050D01*
X0046039Y0020726D02*
X0049839Y0020726D01*
X0049839Y0019927D02*
X0046039Y0019927D01*
X0046039Y0019129D02*
X0049962Y0019129D01*
X0050760Y0018330D02*
X0045430Y0018330D01*
X0042248Y0018330D02*
X0012639Y0018330D01*
X0012639Y0019129D02*
X0041639Y0019129D01*
X0041639Y0019927D02*
X0012639Y0019927D01*
X0012639Y0020726D02*
X0041639Y0020726D01*
X0042402Y0021524D02*
X0012639Y0021524D01*
X0012639Y0022323D02*
X0021867Y0022323D01*
X0022428Y0021763D02*
X0021139Y0023051D01*
X0021139Y0024874D01*
X0022428Y0026163D01*
X0024250Y0026163D01*
X0025539Y0024874D01*
X0025539Y0023051D01*
X0024250Y0021763D01*
X0022428Y0021763D01*
X0021139Y0023121D02*
X0012639Y0023121D01*
X0012639Y0023920D02*
X0021139Y0023920D01*
X0021139Y0024718D02*
X0012639Y0024718D01*
X0012639Y0025517D02*
X0017086Y0025517D01*
X0016476Y0026126D02*
X0017765Y0024838D01*
X0019588Y0024838D01*
X0020876Y0026126D01*
X0020876Y0027949D01*
X0019600Y0029225D01*
X0020564Y0030189D01*
X0020564Y0032012D01*
X0019613Y0032963D01*
X0020350Y0032963D01*
X0021639Y0034251D01*
X0021639Y0036074D01*
X0020350Y0037363D01*
X0019601Y0037363D01*
X0019601Y0038887D01*
X0018313Y0040175D01*
X0017751Y0040175D01*
X0017751Y0041699D01*
X0016463Y0042988D01*
X0014640Y0042988D01*
X0013351Y0041699D01*
X0013351Y0039876D01*
X0014640Y0038588D01*
X0015201Y0038588D01*
X0015201Y0037064D01*
X0016490Y0035775D01*
X0017239Y0035775D01*
X0017239Y0034251D01*
X0018190Y0033300D01*
X0017453Y0033300D01*
X0016164Y0032012D01*
X0016164Y0030189D01*
X0017440Y0028913D01*
X0016476Y0027949D01*
X0016476Y0026126D01*
X0016476Y0026315D02*
X0012639Y0026315D01*
X0012639Y0027114D02*
X0016476Y0027114D01*
X0016476Y0027912D02*
X0012639Y0027912D01*
X0012639Y0028711D02*
X0017238Y0028711D01*
X0016843Y0029509D02*
X0012639Y0029509D01*
X0012639Y0030308D02*
X0016164Y0030308D01*
X0016164Y0031107D02*
X0012639Y0031107D01*
X0012639Y0031905D02*
X0016164Y0031905D01*
X0016856Y0032704D02*
X0012639Y0032704D01*
X0012639Y0033502D02*
X0017988Y0033502D01*
X0017239Y0034301D02*
X0012639Y0034301D01*
X0012639Y0035099D02*
X0017239Y0035099D01*
X0016368Y0035898D02*
X0012639Y0035898D01*
X0012639Y0036696D02*
X0015569Y0036696D01*
X0015201Y0037495D02*
X0012639Y0037495D01*
X0012639Y0038293D02*
X0015201Y0038293D01*
X0014136Y0039092D02*
X0012639Y0039092D01*
X0012639Y0039890D02*
X0013351Y0039890D01*
X0013351Y0040689D02*
X0012639Y0040689D01*
X0012639Y0041487D02*
X0013351Y0041487D01*
X0013938Y0042286D02*
X0012639Y0042286D01*
X0012639Y0043084D02*
X0035744Y0043084D01*
X0035201Y0043626D02*
X0036490Y0042338D01*
X0038313Y0042338D01*
X0039601Y0043626D01*
X0039601Y0044139D01*
X0039778Y0043963D01*
X0041600Y0043963D01*
X0042889Y0045251D01*
X0042889Y0047074D01*
X0041600Y0048363D01*
X0039778Y0048363D01*
X0038489Y0047074D01*
X0038489Y0046561D01*
X0038313Y0046738D01*
X0036490Y0046738D01*
X0035201Y0045449D01*
X0035201Y0043626D01*
X0035201Y0043883D02*
X0015070Y0043883D01*
X0015869Y0044681D02*
X0027897Y0044681D01*
X0028365Y0044213D02*
X0027076Y0045501D01*
X0027076Y0047324D01*
X0028278Y0048525D01*
X0027389Y0049414D01*
X0027389Y0050075D01*
X0025578Y0050075D01*
X0024289Y0051364D01*
X0024289Y0053187D01*
X0025578Y0054475D01*
X0027400Y0054475D01*
X0028689Y0053187D01*
X0028689Y0052525D01*
X0030500Y0052525D01*
X0031789Y0051237D01*
X0031789Y0049414D01*
X0030588Y0048213D01*
X0031476Y0047324D01*
X0031476Y0045501D01*
X0030188Y0044213D01*
X0028365Y0044213D01*
X0027098Y0045480D02*
X0016064Y0045480D01*
X0016064Y0046278D02*
X0027076Y0046278D01*
X0027076Y0047077D02*
X0015686Y0047077D01*
X0014888Y0047875D02*
X0027628Y0047875D01*
X0028129Y0048674D02*
X0012639Y0048674D01*
X0012639Y0049472D02*
X0027389Y0049472D01*
X0025382Y0050271D02*
X0012639Y0050271D01*
X0012639Y0051069D02*
X0024584Y0051069D01*
X0024289Y0051868D02*
X0012639Y0051868D01*
X0012639Y0052666D02*
X0024289Y0052666D01*
X0024567Y0053465D02*
X0012639Y0053465D01*
X0012639Y0054263D02*
X0025366Y0054263D01*
X0027612Y0054263D02*
X0031215Y0054263D01*
X0031488Y0053606D02*
X0032732Y0052361D01*
X0034359Y0051688D01*
X0036119Y0051688D01*
X0037745Y0052361D01*
X0038990Y0053606D01*
X0039664Y0055233D01*
X0039664Y0056993D01*
X0038990Y0058619D01*
X0037745Y0059864D01*
X0036119Y0060538D01*
X0034359Y0060538D01*
X0032732Y0059864D01*
X0032126Y0059258D01*
X0032126Y0060449D01*
X0030838Y0061738D01*
X0029015Y0061738D01*
X0027726Y0060449D01*
X0027726Y0058626D01*
X0029015Y0057338D01*
X0030838Y0057338D01*
X0031041Y0057541D01*
X0030814Y0056993D01*
X0030814Y0055233D01*
X0031488Y0053606D01*
X0031629Y0053465D02*
X0028411Y0053465D01*
X0028689Y0052666D02*
X0032427Y0052666D01*
X0031158Y0051868D02*
X0033924Y0051868D01*
X0033190Y0050263D02*
X0031901Y0048974D01*
X0031901Y0047151D01*
X0033190Y0045863D01*
X0035013Y0045863D01*
X0036301Y0047151D01*
X0036301Y0048974D01*
X0035013Y0050263D01*
X0033190Y0050263D01*
X0032400Y0049472D02*
X0031789Y0049472D01*
X0031789Y0050271D02*
X0058173Y0050271D01*
X0057726Y0049472D02*
X0035803Y0049472D01*
X0036301Y0048674D02*
X0057726Y0048674D01*
X0057853Y0047875D02*
X0042088Y0047875D01*
X0042886Y0047077D02*
X0056530Y0047077D01*
X0054263Y0046340D02*
X0054263Y0046340D01*
X0054178Y0046278D02*
X0042889Y0046278D01*
X0042889Y0045480D02*
X0053079Y0045480D01*
X0051980Y0044681D02*
X0042319Y0044681D01*
X0043025Y0043413D02*
X0041203Y0043413D01*
X0039914Y0042124D01*
X0039914Y0040301D01*
X0041203Y0039013D01*
X0043025Y0039013D01*
X0044314Y0040301D01*
X0044314Y0040564D01*
X0044840Y0040038D01*
X0046663Y0040038D01*
X0047951Y0041326D01*
X0047951Y0043149D01*
X0046663Y0044438D01*
X0044840Y0044438D01*
X0043551Y0043149D01*
X0043551Y0042886D01*
X0043025Y0043413D01*
X0043354Y0043084D02*
X0043551Y0043084D01*
X0044285Y0043883D02*
X0039601Y0043883D01*
X0039059Y0043084D02*
X0040874Y0043084D01*
X0040076Y0042286D02*
X0017165Y0042286D01*
X0017751Y0041487D02*
X0039914Y0041487D01*
X0039914Y0040689D02*
X0017751Y0040689D01*
X0018598Y0039890D02*
X0040325Y0039890D01*
X0041124Y0039092D02*
X0019396Y0039092D01*
X0019601Y0038293D02*
X0026080Y0038293D01*
X0026195Y0038408D02*
X0025806Y0038019D01*
X0025501Y0037562D01*
X0025290Y0037054D01*
X0025183Y0036515D01*
X0025183Y0036241D01*
X0027974Y0036241D01*
X0027974Y0036241D01*
X0027974Y0039031D01*
X0028249Y0039031D01*
X0028788Y0038924D01*
X0029295Y0038713D01*
X0029450Y0038610D01*
X0029605Y0038713D01*
X0030112Y0038924D01*
X0030652Y0039031D01*
X0030926Y0039031D01*
X0030926Y0036241D01*
X0030926Y0036241D01*
X0030926Y0036240D01*
X0030926Y0036240D01*
X0030926Y0033450D01*
X0030926Y0033288D01*
X0030926Y0033288D01*
X0027974Y0033288D01*
X0027974Y0033288D01*
X0027974Y0033288D01*
X0027974Y0036240D01*
X0027974Y0036240D01*
X0027974Y0036241D01*
X0030926Y0036241D01*
X0030926Y0039031D01*
X0031201Y0039031D01*
X0031740Y0038924D01*
X0032248Y0038713D01*
X0032403Y0038610D01*
X0032557Y0038713D01*
X0033065Y0038924D01*
X0033604Y0039031D01*
X0033879Y0039031D01*
X0033879Y0036241D01*
X0033879Y0036241D01*
X0033879Y0039031D01*
X0034154Y0039031D01*
X0034693Y0038924D01*
X0035201Y0038713D01*
X0035658Y0038408D01*
X0036047Y0038019D01*
X0036352Y0037562D01*
X0036563Y0037054D01*
X0036670Y0036515D01*
X0036670Y0036241D01*
X0033879Y0036241D01*
X0033879Y0036240D01*
X0033879Y0036240D01*
X0033879Y0036078D01*
X0033879Y0033288D01*
X0033879Y0033288D01*
X0033879Y0033288D01*
X0031089Y0033288D01*
X0030927Y0033288D01*
X0030927Y0033288D01*
X0030926Y0033288D02*
X0030926Y0033288D01*
X0030764Y0033288D01*
X0027974Y0033288D01*
X0027974Y0036078D01*
X0027974Y0036240D01*
X0028136Y0036240D01*
X0030926Y0036240D01*
X0030926Y0033288D01*
X0030926Y0033288D01*
X0030926Y0033126D01*
X0030926Y0030335D01*
X0030926Y0030335D01*
X0027974Y0030335D01*
X0027974Y0030335D01*
X0028136Y0030335D01*
X0030926Y0030335D01*
X0030926Y0030335D01*
X0030926Y0030335D01*
X0030926Y0027544D01*
X0030652Y0027544D01*
X0030112Y0027652D01*
X0029605Y0027862D01*
X0029450Y0027965D01*
X0029295Y0027862D01*
X0028788Y0027652D01*
X0028249Y0027544D01*
X0027974Y0027544D01*
X0027974Y0030335D01*
X0027974Y0030497D01*
X0027974Y0033288D01*
X0027974Y0033288D01*
X0027974Y0033288D01*
X0025183Y0033288D01*
X0025183Y0033563D01*
X0025290Y0034102D01*
X0025501Y0034610D01*
X0025604Y0034764D01*
X0025501Y0034919D01*
X0025290Y0035427D01*
X0025183Y0035966D01*
X0025183Y0036240D01*
X0027974Y0036240D01*
X0027974Y0036241D01*
X0027974Y0039031D01*
X0027699Y0039031D01*
X0027160Y0038924D01*
X0026652Y0038713D01*
X0026195Y0038408D01*
X0025473Y0037495D02*
X0019601Y0037495D01*
X0021017Y0036696D02*
X0025219Y0036696D01*
X0025197Y0035898D02*
X0021639Y0035898D01*
X0021639Y0035099D02*
X0025426Y0035099D01*
X0025373Y0034301D02*
X0021639Y0034301D01*
X0020890Y0033502D02*
X0025183Y0033502D01*
X0025183Y0033288D02*
X0027974Y0033288D01*
X0027974Y0030335D01*
X0027974Y0030335D01*
X0027974Y0030335D01*
X0027974Y0027544D01*
X0027699Y0027544D01*
X0027160Y0027652D01*
X0026652Y0027862D01*
X0026195Y0028167D01*
X0025806Y0028556D01*
X0025501Y0029013D01*
X0025290Y0029521D01*
X0025183Y0030060D01*
X0025183Y0030335D01*
X0027974Y0030335D01*
X0025183Y0030335D01*
X0025183Y0030610D01*
X0025290Y0031149D01*
X0025501Y0031657D01*
X0025604Y0031811D01*
X0025501Y0031966D01*
X0025290Y0032474D01*
X0025183Y0033013D01*
X0025183Y0033288D01*
X0025245Y0032704D02*
X0019872Y0032704D01*
X0020564Y0031905D02*
X0025541Y0031905D01*
X0025282Y0031107D02*
X0020564Y0031107D01*
X0020564Y0030308D02*
X0025183Y0030308D01*
X0025295Y0029509D02*
X0019884Y0029509D01*
X0020114Y0028711D02*
X0025703Y0028711D01*
X0026576Y0027912D02*
X0020876Y0027912D01*
X0020876Y0027114D02*
X0040739Y0027114D01*
X0040739Y0026596D02*
X0042028Y0025308D01*
X0043850Y0025308D01*
X0045139Y0026596D01*
X0045139Y0028419D01*
X0043850Y0029708D01*
X0042028Y0029708D01*
X0040739Y0028419D01*
X0040739Y0026596D01*
X0041020Y0026315D02*
X0020876Y0026315D01*
X0020267Y0025517D02*
X0021782Y0025517D01*
X0024896Y0025517D02*
X0041818Y0025517D01*
X0044059Y0025517D02*
X0047239Y0025517D01*
X0047239Y0026315D02*
X0044858Y0026315D01*
X0045139Y0027114D02*
X0047239Y0027114D01*
X0047239Y0027912D02*
X0045139Y0027912D01*
X0044847Y0028711D02*
X0047239Y0028711D01*
X0047239Y0029509D02*
X0044048Y0029509D01*
X0041829Y0029509D02*
X0036558Y0029509D01*
X0036563Y0029521D02*
X0036670Y0030060D01*
X0036670Y0030335D01*
X0036670Y0030610D01*
X0036563Y0031149D01*
X0036352Y0031657D01*
X0036249Y0031811D01*
X0036352Y0031966D01*
X0036563Y0032474D01*
X0036670Y0033013D01*
X0036670Y0033288D01*
X0036670Y0033563D01*
X0036563Y0034102D01*
X0036352Y0034610D01*
X0036249Y0034764D01*
X0036352Y0034919D01*
X0036563Y0035427D01*
X0036670Y0035966D01*
X0036670Y0036240D01*
X0033879Y0036240D01*
X0030927Y0036240D01*
X0030927Y0036241D01*
X0033717Y0036241D01*
X0033879Y0036241D01*
X0033879Y0036240D01*
X0033879Y0033288D01*
X0030927Y0033288D01*
X0030926Y0033288D02*
X0030926Y0030335D01*
X0030926Y0027544D01*
X0031201Y0027544D01*
X0031740Y0027652D01*
X0032248Y0027862D01*
X0032403Y0027965D01*
X0032557Y0027862D01*
X0033065Y0027652D01*
X0033604Y0027544D01*
X0033879Y0027544D01*
X0033879Y0030335D01*
X0033879Y0030335D01*
X0031089Y0030335D01*
X0030927Y0030335D01*
X0030927Y0030335D01*
X0033879Y0030335D01*
X0033879Y0033288D01*
X0036670Y0033288D01*
X0033879Y0033288D01*
X0033879Y0033288D01*
X0033879Y0033288D01*
X0033879Y0030497D01*
X0033879Y0030335D01*
X0033879Y0030335D01*
X0033879Y0030335D01*
X0033879Y0027544D01*
X0034154Y0027544D01*
X0034693Y0027652D01*
X0035201Y0027862D01*
X0035658Y0028167D01*
X0036047Y0028556D01*
X0036352Y0029013D01*
X0036563Y0029521D01*
X0036670Y0030308D02*
X0047239Y0030308D01*
X0047239Y0031107D02*
X0036571Y0031107D01*
X0036670Y0030335D02*
X0033879Y0030335D01*
X0033879Y0030335D01*
X0036670Y0030335D01*
X0036311Y0031905D02*
X0047239Y0031905D01*
X0047239Y0032704D02*
X0036608Y0032704D01*
X0036670Y0033502D02*
X0047239Y0033502D01*
X0047239Y0034301D02*
X0036480Y0034301D01*
X0036427Y0035099D02*
X0047239Y0035099D01*
X0047239Y0035898D02*
X0036656Y0035898D01*
X0036634Y0036696D02*
X0047247Y0036696D01*
X0047506Y0037495D02*
X0036380Y0037495D01*
X0035773Y0038293D02*
X0047766Y0038293D01*
X0048025Y0039092D02*
X0043104Y0039092D01*
X0043903Y0039890D02*
X0048285Y0039890D01*
X0048511Y0040588D02*
X0048511Y0040588D01*
X0048584Y0040689D02*
X0047314Y0040689D01*
X0047951Y0041487D02*
X0049165Y0041487D01*
X0049745Y0042286D02*
X0047951Y0042286D01*
X0047951Y0043084D02*
X0050325Y0043084D01*
X0050905Y0043883D02*
X0047218Y0043883D01*
X0039290Y0047875D02*
X0036301Y0047875D01*
X0036227Y0047077D02*
X0038492Y0047077D01*
X0036031Y0046278D02*
X0035428Y0046278D01*
X0035232Y0045480D02*
X0031455Y0045480D01*
X0031476Y0046278D02*
X0032775Y0046278D01*
X0031976Y0047077D02*
X0031476Y0047077D01*
X0031901Y0047875D02*
X0030925Y0047875D01*
X0031049Y0048674D02*
X0031901Y0048674D01*
X0031789Y0051069D02*
X0058972Y0051069D01*
X0060881Y0051069D02*
X0060909Y0051069D01*
X0060839Y0051868D02*
X0036554Y0051868D01*
X0038050Y0052666D02*
X0060839Y0052666D01*
X0061036Y0053465D02*
X0038849Y0053465D01*
X0039262Y0054263D02*
X0061367Y0054263D01*
X0061966Y0055062D02*
X0039593Y0055062D01*
X0039664Y0055860D02*
X0062789Y0055860D01*
X0062470Y0056659D02*
X0039664Y0056659D01*
X0039472Y0057457D02*
X0061672Y0057457D01*
X0061246Y0058256D02*
X0039141Y0058256D01*
X0038555Y0059054D02*
X0060915Y0059054D01*
X0060839Y0059853D02*
X0037757Y0059853D01*
X0039092Y0062248D02*
X0012639Y0062248D01*
X0012639Y0061450D02*
X0028727Y0061450D01*
X0027929Y0060651D02*
X0012639Y0060651D01*
X0012639Y0059853D02*
X0027726Y0059853D01*
X0027726Y0059054D02*
X0012639Y0059054D01*
X0012639Y0058256D02*
X0028097Y0058256D01*
X0028895Y0057457D02*
X0012639Y0057457D01*
X0012639Y0056659D02*
X0030814Y0056659D01*
X0030814Y0055860D02*
X0012639Y0055860D01*
X0012639Y0055062D02*
X0030885Y0055062D01*
X0030957Y0057457D02*
X0031006Y0057457D01*
X0032126Y0059853D02*
X0032721Y0059853D01*
X0031924Y0060651D02*
X0060839Y0060651D01*
X0061030Y0061450D02*
X0057750Y0061450D01*
X0058548Y0062248D02*
X0061361Y0062248D01*
X0061951Y0063047D02*
X0059001Y0063047D01*
X0059001Y0063845D02*
X0062753Y0063845D01*
X0058881Y0064644D02*
X0078839Y0064644D01*
X0078949Y0063845D02*
X0067725Y0063845D01*
X0068527Y0063047D02*
X0079410Y0063047D01*
X0080380Y0062248D02*
X0069117Y0062248D01*
X0069448Y0061450D02*
X0107839Y0061450D01*
X0107839Y0062248D02*
X0090097Y0062248D01*
X0090862Y0062690D02*
X0090862Y0062690D01*
X0090862Y0062690D01*
X0091068Y0063047D02*
X0107839Y0063047D01*
X0107839Y0063845D02*
X0091529Y0063845D01*
X0091639Y0064644D02*
X0107839Y0064644D01*
X0107839Y0065443D02*
X0091639Y0065443D01*
X0091639Y0066241D02*
X0107839Y0066241D01*
X0107839Y0067040D02*
X0091639Y0067040D01*
X0097692Y0067838D02*
X0107839Y0067838D01*
X0107839Y0068637D02*
X0098606Y0068637D01*
X0099067Y0069435D02*
X0107839Y0069435D01*
X0107839Y0070234D02*
X0099239Y0070234D01*
X0099239Y0071032D02*
X0107839Y0071032D01*
X0107839Y0071831D02*
X0099239Y0071831D01*
X0099239Y0072629D02*
X0107839Y0072629D01*
X0107839Y0073428D02*
X0099239Y0073428D01*
X0099239Y0074226D02*
X0107839Y0074226D01*
X0107839Y0075025D02*
X0099239Y0075025D01*
X0099239Y0075823D02*
X0107839Y0075823D01*
X0107839Y0076622D02*
X0099239Y0076622D01*
X0099239Y0077420D02*
X0107839Y0077420D01*
X0107839Y0078219D02*
X0099166Y0078219D01*
X0098705Y0079017D02*
X0107839Y0079017D01*
X0107839Y0079816D02*
X0097989Y0079816D01*
X0098371Y0079595D02*
X0098371Y0079595D01*
X0097989Y0083010D02*
X0107839Y0083010D01*
X0107839Y0083808D02*
X0098705Y0083808D01*
X0099166Y0084607D02*
X0107839Y0084607D01*
X0107839Y0085405D02*
X0099239Y0085405D01*
X0099239Y0086204D02*
X0107839Y0086204D01*
X0107839Y0087002D02*
X0099239Y0087002D01*
X0099239Y0087801D02*
X0107839Y0087801D01*
X0107839Y0088599D02*
X0099239Y0088599D01*
X0099239Y0089398D02*
X0107839Y0089398D01*
X0107839Y0090196D02*
X0099239Y0090196D01*
X0099239Y0090995D02*
X0107839Y0090995D01*
X0107839Y0091793D02*
X0099239Y0091793D01*
X0099239Y0092592D02*
X0107839Y0092592D01*
X0107839Y0082211D02*
X0091639Y0082211D01*
X0091639Y0081413D02*
X0107839Y0081413D01*
X0107839Y0080614D02*
X0091639Y0080614D01*
X0078839Y0080614D02*
X0055711Y0080614D01*
X0055876Y0080449D02*
X0054588Y0081738D01*
X0052765Y0081738D01*
X0051476Y0080449D01*
X0051476Y0078626D01*
X0052765Y0077338D01*
X0054588Y0077338D01*
X0055876Y0078626D01*
X0055876Y0080449D01*
X0055876Y0079816D02*
X0078839Y0079816D01*
X0078839Y0079017D02*
X0055876Y0079017D01*
X0055469Y0078219D02*
X0068421Y0078219D01*
X0069015Y0078813D02*
X0067726Y0077524D01*
X0067726Y0075701D01*
X0069015Y0074413D01*
X0070838Y0074413D01*
X0072126Y0075701D01*
X0072126Y0077524D01*
X0070838Y0078813D01*
X0069015Y0078813D01*
X0067726Y0077420D02*
X0054670Y0077420D01*
X0052683Y0077420D02*
X0043201Y0077420D01*
X0043201Y0076622D02*
X0067726Y0076622D01*
X0067726Y0075823D02*
X0043201Y0075823D01*
X0043201Y0075025D02*
X0068403Y0075025D01*
X0071450Y0075025D02*
X0078839Y0075025D01*
X0078839Y0075823D02*
X0072126Y0075823D01*
X0072126Y0076622D02*
X0078839Y0076622D01*
X0078839Y0077420D02*
X0072126Y0077420D01*
X0071432Y0078219D02*
X0078839Y0078219D01*
X0078839Y0081413D02*
X0054913Y0081413D01*
X0052440Y0081413D02*
X0043201Y0081413D01*
X0043201Y0082211D02*
X0078839Y0082211D01*
X0078839Y0083010D02*
X0043201Y0083010D01*
X0043201Y0083808D02*
X0078839Y0083808D01*
X0078839Y0084607D02*
X0043201Y0084607D01*
X0043201Y0085405D02*
X0052435Y0085405D01*
X0052928Y0084913D02*
X0054750Y0084913D01*
X0056039Y0086201D01*
X0056039Y0088024D01*
X0054750Y0089313D01*
X0052928Y0089313D01*
X0051639Y0088024D01*
X0051639Y0086201D01*
X0052928Y0084913D01*
X0051639Y0086204D02*
X0043201Y0086204D01*
X0043201Y0087002D02*
X0051639Y0087002D01*
X0051639Y0087801D02*
X0043201Y0087801D01*
X0043201Y0088599D02*
X0052214Y0088599D01*
X0055464Y0088599D02*
X0078839Y0088599D01*
X0078839Y0087801D02*
X0056039Y0087801D01*
X0056039Y0087002D02*
X0078839Y0087002D01*
X0078839Y0086204D02*
X0056039Y0086204D01*
X0055243Y0085405D02*
X0078839Y0085405D01*
X0078839Y0089398D02*
X0043201Y0089398D01*
X0043201Y0090196D02*
X0078839Y0090196D01*
X0078839Y0090995D02*
X0043201Y0090995D01*
X0043201Y0091793D02*
X0078839Y0091793D01*
X0078839Y0092592D02*
X0043201Y0092592D01*
X0043201Y0092663D02*
X0078839Y0092663D01*
X0078839Y0066413D01*
X0043989Y0066413D01*
X0043989Y0064849D01*
X0043739Y0064599D01*
X0043739Y0063913D01*
X0040969Y0063913D01*
X0042381Y0065325D01*
X0043201Y0066145D01*
X0043201Y0092663D01*
X0041801Y0092686D02*
X0041801Y0094012D01*
X0041639Y0095309D01*
X0041639Y0094435D01*
X0041639Y0092524D01*
X0041801Y0092686D01*
X0041707Y0092592D02*
X0041639Y0092592D01*
X0041639Y0093390D02*
X0041801Y0093390D01*
X0041779Y0094189D02*
X0041639Y0094189D01*
X0041639Y0094987D02*
X0041679Y0094987D01*
X0043890Y0097383D02*
X0078839Y0097383D01*
X0078839Y0096584D02*
X0044551Y0096584D01*
X0044603Y0095786D02*
X0078839Y0095786D01*
X0078839Y0094987D02*
X0044703Y0094987D01*
X0044803Y0094189D02*
X0078839Y0094189D01*
X0075968Y0098181D02*
X0043092Y0098181D01*
X0042293Y0098980D02*
X0075375Y0098980D01*
X0075375Y0099778D02*
X0041494Y0099778D01*
X0040451Y0098700D02*
X0023464Y0098700D01*
X0022421Y0099778D02*
X0012639Y0099778D01*
X0012639Y0098980D02*
X0021622Y0098980D01*
X0020824Y0098181D02*
X0012639Y0098181D01*
X0012639Y0097383D02*
X0020025Y0097383D01*
X0019227Y0096584D02*
X0012639Y0096584D01*
X0012639Y0095786D02*
X0014626Y0095786D01*
X0013827Y0094987D02*
X0012639Y0094987D01*
X0012639Y0094189D02*
X0013351Y0094189D01*
X0013351Y0093390D02*
X0012639Y0093390D01*
X0012639Y0092592D02*
X0013448Y0092592D01*
X0014247Y0091793D02*
X0012639Y0091793D01*
X0012639Y0090995D02*
X0018214Y0090995D01*
X0018214Y0091793D02*
X0016856Y0091793D01*
X0018214Y0090196D02*
X0012639Y0090196D01*
X0012639Y0089398D02*
X0018214Y0089398D01*
X0018214Y0088599D02*
X0012639Y0088599D01*
X0012639Y0087801D02*
X0018214Y0087801D01*
X0018214Y0087002D02*
X0012639Y0087002D01*
X0012639Y0086204D02*
X0018214Y0086204D01*
X0018214Y0085405D02*
X0012639Y0085405D01*
X0012639Y0084607D02*
X0018214Y0084607D01*
X0018214Y0083808D02*
X0012639Y0083808D01*
X0012639Y0083010D02*
X0018214Y0083010D01*
X0018214Y0082211D02*
X0012639Y0082211D01*
X0012639Y0081413D02*
X0018214Y0081413D01*
X0018214Y0080614D02*
X0012639Y0080614D01*
X0012639Y0079816D02*
X0018214Y0079816D01*
X0018214Y0079017D02*
X0012639Y0079017D01*
X0012639Y0078219D02*
X0018214Y0078219D01*
X0018214Y0077420D02*
X0012639Y0077420D01*
X0012639Y0076622D02*
X0018214Y0076622D01*
X0018214Y0075823D02*
X0012639Y0075823D01*
X0012639Y0075025D02*
X0018214Y0075025D01*
X0018214Y0074226D02*
X0012639Y0074226D01*
X0012639Y0073428D02*
X0018214Y0073428D01*
X0018214Y0072629D02*
X0012639Y0072629D01*
X0015432Y0071831D02*
X0018214Y0071831D01*
X0018214Y0071032D02*
X0016189Y0071032D01*
X0016189Y0070234D02*
X0018214Y0070234D01*
X0018214Y0069435D02*
X0016189Y0069435D01*
X0015574Y0068637D02*
X0018214Y0068637D01*
X0018709Y0067838D02*
X0012639Y0067838D01*
X0012639Y0067040D02*
X0012754Y0067040D01*
X0015223Y0067040D02*
X0019507Y0067040D01*
X0020306Y0066241D02*
X0016022Y0066241D01*
X0016189Y0065443D02*
X0021104Y0065443D01*
X0022114Y0066413D02*
X0019614Y0068913D01*
X0019614Y0092729D01*
X0022985Y0096100D01*
X0028989Y0096100D01*
X0029195Y0096306D01*
X0028839Y0095690D01*
X0028839Y0095085D01*
X0025056Y0095421D01*
X0024954Y0095463D01*
X0024583Y0095463D01*
X0024214Y0095496D01*
X0024109Y0095463D01*
X0023609Y0095463D01*
X0022107Y0094595D01*
X0022107Y0094595D01*
X0021239Y0093092D01*
X0021239Y0084733D01*
X0022107Y0083230D01*
X0023609Y0082363D01*
X0023609Y0082363D01*
X0024109Y0082363D01*
X0024214Y0082330D01*
X0024583Y0082363D01*
X0024954Y0082363D01*
X0025056Y0082405D01*
X0028839Y0082740D01*
X0028839Y0080085D01*
X0025056Y0080421D01*
X0024954Y0080463D01*
X0024583Y0080463D01*
X0024214Y0080496D01*
X0024109Y0080463D01*
X0023609Y0080463D01*
X0022107Y0079595D01*
X0022107Y0079595D01*
X0021239Y0078092D01*
X0021239Y0076747D01*
X0021239Y0071078D01*
X0021239Y0069733D01*
X0022107Y0068230D01*
X0023609Y0067363D01*
X0024109Y0067363D01*
X0024214Y0067330D01*
X0024583Y0067363D01*
X0024954Y0067363D01*
X0025056Y0067405D01*
X0028839Y0067740D01*
X0028839Y0067136D01*
X0029616Y0065790D01*
X0029616Y0065790D01*
X0030962Y0065013D01*
X0038928Y0065013D01*
X0038539Y0064624D01*
X0038539Y0064538D01*
X0030239Y0064538D01*
X0028364Y0066413D01*
X0022114Y0066413D01*
X0021487Y0067040D02*
X0028894Y0067040D01*
X0028536Y0066241D02*
X0029355Y0066241D01*
X0029616Y0065790D02*
X0029616Y0065790D01*
X0029334Y0065443D02*
X0030217Y0065443D01*
X0030133Y0064644D02*
X0038559Y0064644D01*
X0037875Y0063047D02*
X0014984Y0063047D01*
X0015783Y0063845D02*
X0028951Y0063845D01*
X0028153Y0064644D02*
X0016189Y0064644D01*
X0012993Y0063047D02*
X0012639Y0063047D01*
X0019614Y0069435D02*
X0021411Y0069435D01*
X0021239Y0070234D02*
X0019614Y0070234D01*
X0019614Y0071032D02*
X0021239Y0071032D01*
X0021239Y0071831D02*
X0019614Y0071831D01*
X0019614Y0072629D02*
X0021239Y0072629D01*
X0021239Y0073428D02*
X0019614Y0073428D01*
X0019614Y0074226D02*
X0021239Y0074226D01*
X0021239Y0075025D02*
X0019614Y0075025D01*
X0019614Y0075823D02*
X0021239Y0075823D01*
X0021239Y0076622D02*
X0019614Y0076622D01*
X0019614Y0077420D02*
X0021239Y0077420D01*
X0021312Y0078219D02*
X0019614Y0078219D01*
X0019614Y0079017D02*
X0021773Y0079017D01*
X0022107Y0079595D02*
X0022107Y0079595D01*
X0022489Y0079816D02*
X0019614Y0079816D01*
X0019614Y0080614D02*
X0028839Y0080614D01*
X0028839Y0081413D02*
X0019614Y0081413D01*
X0019614Y0082211D02*
X0028839Y0082211D01*
X0033639Y0082211D02*
X0036839Y0082211D01*
X0036839Y0081413D02*
X0033639Y0081413D01*
X0033639Y0080614D02*
X0036839Y0080614D01*
X0036839Y0079816D02*
X0033639Y0079816D01*
X0033639Y0079017D02*
X0036839Y0079017D01*
X0036839Y0078219D02*
X0033639Y0078219D01*
X0033639Y0077831D02*
X0033639Y0084995D01*
X0033672Y0085099D01*
X0033639Y0085469D01*
X0033639Y0085840D01*
X0033597Y0085941D01*
X0033587Y0086050D01*
X0033416Y0086379D01*
X0033274Y0086722D01*
X0033196Y0086800D01*
X0033145Y0086897D01*
X0032861Y0087135D01*
X0032598Y0087397D01*
X0032497Y0087439D01*
X0032413Y0087510D01*
X0032059Y0087621D01*
X0031716Y0087763D01*
X0031607Y0087763D01*
X0031502Y0087796D01*
X0031133Y0087763D01*
X0030762Y0087763D01*
X0030660Y0087721D01*
X0026039Y0087311D01*
X0026039Y0090515D01*
X0030660Y0090105D01*
X0030762Y0090063D01*
X0031133Y0090063D01*
X0031502Y0090030D01*
X0031607Y0090063D01*
X0031716Y0090063D01*
X0032059Y0090205D01*
X0032413Y0090316D01*
X0032497Y0090386D01*
X0032598Y0090428D01*
X0032861Y0090691D01*
X0033145Y0090929D01*
X0033196Y0091026D01*
X0033274Y0091103D01*
X0033416Y0091446D01*
X0033587Y0091775D01*
X0033597Y0091884D01*
X0033639Y0091985D01*
X0033639Y0092356D01*
X0033672Y0092726D01*
X0033639Y0092831D01*
X0033639Y0093013D01*
X0036839Y0093013D01*
X0036839Y0069813D01*
X0033639Y0069813D01*
X0033639Y0069995D01*
X0033672Y0070099D01*
X0033639Y0070469D01*
X0033639Y0070840D01*
X0033597Y0070941D01*
X0033587Y0071050D01*
X0033416Y0071379D01*
X0033274Y0071722D01*
X0033196Y0071800D01*
X0033145Y0071897D01*
X0032861Y0072135D01*
X0032598Y0072397D01*
X0032497Y0072439D01*
X0032413Y0072510D01*
X0032059Y0072621D01*
X0031716Y0072763D01*
X0031607Y0072763D01*
X0031502Y0072796D01*
X0031133Y0072763D01*
X0030762Y0072763D01*
X0030660Y0072721D01*
X0026039Y0072311D01*
X0026039Y0075515D01*
X0030660Y0075105D01*
X0030762Y0075063D01*
X0031133Y0075063D01*
X0031502Y0075030D01*
X0031607Y0075063D01*
X0031716Y0075063D01*
X0032059Y0075205D01*
X0032413Y0075316D01*
X0032497Y0075386D01*
X0032598Y0075428D01*
X0032861Y0075691D01*
X0033145Y0075929D01*
X0033196Y0076026D01*
X0033274Y0076103D01*
X0033416Y0076446D01*
X0033587Y0076775D01*
X0033597Y0076884D01*
X0033639Y0076985D01*
X0033639Y0077356D01*
X0033672Y0077726D01*
X0033639Y0077831D01*
X0033645Y0077420D02*
X0036839Y0077420D01*
X0036839Y0076622D02*
X0033507Y0076622D01*
X0033019Y0075823D02*
X0036839Y0075823D01*
X0036839Y0075025D02*
X0026039Y0075025D01*
X0026039Y0074226D02*
X0036839Y0074226D01*
X0036839Y0073428D02*
X0026039Y0073428D01*
X0026039Y0072629D02*
X0029627Y0072629D01*
X0032039Y0072629D02*
X0036839Y0072629D01*
X0036839Y0071831D02*
X0033180Y0071831D01*
X0033589Y0071032D02*
X0036839Y0071032D01*
X0036839Y0070234D02*
X0033660Y0070234D01*
X0041639Y0070234D02*
X0041801Y0070234D01*
X0041801Y0071032D02*
X0041639Y0071032D01*
X0041639Y0071831D02*
X0041801Y0071831D01*
X0041801Y0072629D02*
X0041639Y0072629D01*
X0041639Y0073428D02*
X0041801Y0073428D01*
X0041801Y0074226D02*
X0041639Y0074226D01*
X0041639Y0075025D02*
X0041801Y0075025D01*
X0041801Y0075823D02*
X0041639Y0075823D01*
X0041639Y0076622D02*
X0041801Y0076622D01*
X0041801Y0077420D02*
X0041639Y0077420D01*
X0041639Y0078219D02*
X0041801Y0078219D01*
X0041801Y0079017D02*
X0041639Y0079017D01*
X0041639Y0079816D02*
X0041801Y0079816D01*
X0041801Y0080614D02*
X0041639Y0080614D01*
X0041639Y0081413D02*
X0041801Y0081413D01*
X0041801Y0082211D02*
X0041639Y0082211D01*
X0041639Y0083010D02*
X0041801Y0083010D01*
X0041801Y0083808D02*
X0041639Y0083808D01*
X0041639Y0084607D02*
X0041801Y0084607D01*
X0041801Y0085405D02*
X0041639Y0085405D01*
X0041639Y0086204D02*
X0041801Y0086204D01*
X0041801Y0087002D02*
X0041639Y0087002D01*
X0041639Y0087801D02*
X0041801Y0087801D01*
X0041801Y0088599D02*
X0041639Y0088599D01*
X0041639Y0089398D02*
X0041801Y0089398D01*
X0041801Y0090139D02*
X0041801Y0066725D01*
X0040989Y0065913D01*
X0040933Y0065913D01*
X0041639Y0067136D01*
X0041639Y0090301D01*
X0041801Y0090139D01*
X0041744Y0090196D02*
X0041639Y0090196D01*
X0036839Y0090196D02*
X0032039Y0090196D01*
X0033180Y0090995D02*
X0036839Y0090995D01*
X0036839Y0091793D02*
X0033589Y0091793D01*
X0033660Y0092592D02*
X0036839Y0092592D01*
X0036839Y0089398D02*
X0026039Y0089398D01*
X0026039Y0090196D02*
X0029627Y0090196D01*
X0033019Y0087002D02*
X0036839Y0087002D01*
X0036839Y0086204D02*
X0033507Y0086204D01*
X0033645Y0085405D02*
X0036839Y0085405D01*
X0036839Y0084607D02*
X0033639Y0084607D01*
X0033639Y0083808D02*
X0036839Y0083808D01*
X0036839Y0083010D02*
X0033639Y0083010D01*
X0036839Y0087801D02*
X0026039Y0087801D01*
X0026039Y0088599D02*
X0036839Y0088599D01*
X0028894Y0095786D02*
X0022671Y0095786D01*
X0022786Y0094987D02*
X0021872Y0094987D01*
X0022107Y0094595D02*
X0022107Y0094595D01*
X0021872Y0094189D02*
X0021074Y0094189D01*
X0021411Y0093390D02*
X0020275Y0093390D01*
X0019614Y0092592D02*
X0021239Y0092592D01*
X0021239Y0091793D02*
X0019614Y0091793D01*
X0019614Y0090995D02*
X0021239Y0090995D01*
X0021239Y0090196D02*
X0019614Y0090196D01*
X0019614Y0089398D02*
X0021239Y0089398D01*
X0021239Y0088599D02*
X0019614Y0088599D01*
X0019614Y0087801D02*
X0021239Y0087801D01*
X0021239Y0087002D02*
X0019614Y0087002D01*
X0019614Y0086204D02*
X0021239Y0086204D01*
X0021239Y0085405D02*
X0019614Y0085405D01*
X0019614Y0084607D02*
X0021312Y0084607D01*
X0021773Y0083808D02*
X0019614Y0083808D01*
X0019614Y0083010D02*
X0022489Y0083010D01*
X0022107Y0083230D02*
X0022107Y0083230D01*
X0018428Y0095786D02*
X0016477Y0095786D01*
X0012639Y0100577D02*
X0022839Y0100577D01*
X0022839Y0101376D02*
X0012639Y0101376D01*
X0012639Y0102174D02*
X0022839Y0102174D01*
X0023600Y0102973D02*
X0012639Y0102973D01*
X0012639Y0103771D02*
X0080239Y0103771D01*
X0080239Y0102973D02*
X0030278Y0102973D01*
X0031039Y0102174D02*
X0080239Y0102174D01*
X0080239Y0101376D02*
X0078996Y0101376D01*
X0079775Y0100577D02*
X0080239Y0100577D01*
X0080239Y0104570D02*
X0012639Y0104570D01*
X0012639Y0105368D02*
X0080239Y0105368D01*
X0080239Y0106167D02*
X0012639Y0106167D01*
X0012639Y0106965D02*
X0080239Y0106965D01*
X0080239Y0107764D02*
X0064514Y0107764D01*
X0065251Y0108562D02*
X0080239Y0108562D01*
X0080239Y0109361D02*
X0065251Y0109361D01*
X0065251Y0110159D02*
X0080239Y0110159D01*
X0076153Y0101376D02*
X0031039Y0101376D01*
X0031039Y0100577D02*
X0075375Y0100577D01*
X0061589Y0107764D02*
X0012639Y0107764D01*
X0012639Y0108562D02*
X0060851Y0108562D01*
X0060851Y0109361D02*
X0012639Y0109361D01*
X0012639Y0110159D02*
X0060851Y0110159D01*
X0051642Y0080614D02*
X0043201Y0080614D01*
X0043201Y0079816D02*
X0051476Y0079816D01*
X0051476Y0079017D02*
X0043201Y0079017D01*
X0043201Y0078219D02*
X0051884Y0078219D01*
X0043201Y0074226D02*
X0078839Y0074226D01*
X0078839Y0073428D02*
X0043201Y0073428D01*
X0043201Y0072629D02*
X0078839Y0072629D01*
X0078839Y0071831D02*
X0043201Y0071831D01*
X0043201Y0071032D02*
X0078839Y0071032D01*
X0078839Y0070234D02*
X0043201Y0070234D01*
X0043201Y0069435D02*
X0078839Y0069435D01*
X0078839Y0068637D02*
X0043201Y0068637D01*
X0043201Y0067838D02*
X0078839Y0067838D01*
X0078839Y0067040D02*
X0043201Y0067040D01*
X0043201Y0066241D02*
X0043989Y0066241D01*
X0043989Y0065443D02*
X0042499Y0065443D01*
X0041700Y0064644D02*
X0043784Y0064644D01*
X0044267Y0062248D02*
X0042386Y0062248D01*
X0041317Y0066241D02*
X0041122Y0066241D01*
X0041583Y0067040D02*
X0041801Y0067040D01*
X0041801Y0067838D02*
X0041639Y0067838D01*
X0041639Y0068637D02*
X0041801Y0068637D01*
X0041801Y0069435D02*
X0041639Y0069435D01*
X0048094Y0064644D02*
X0054721Y0064644D01*
X0054601Y0063845D02*
X0048139Y0063845D01*
X0048139Y0063047D02*
X0054601Y0063047D01*
X0055054Y0062248D02*
X0047611Y0062248D01*
X0055853Y0061450D02*
X0031125Y0061450D01*
X0022786Y0067838D02*
X0020689Y0067838D01*
X0019890Y0068637D02*
X0021872Y0068637D01*
X0022107Y0068230D02*
X0022107Y0068230D01*
X0022107Y0068230D01*
X0012840Y0047875D02*
X0012639Y0047875D01*
X0012639Y0043883D02*
X0012658Y0043883D01*
X0027974Y0038293D02*
X0027974Y0038293D01*
X0027974Y0037495D02*
X0027974Y0037495D01*
X0027974Y0036696D02*
X0027974Y0036696D01*
X0027974Y0035898D02*
X0027974Y0035898D01*
X0027974Y0035099D02*
X0027974Y0035099D01*
X0027974Y0034301D02*
X0027974Y0034301D01*
X0027974Y0033502D02*
X0027974Y0033502D01*
X0027974Y0032704D02*
X0027974Y0032704D01*
X0027974Y0031905D02*
X0027974Y0031905D01*
X0027974Y0031107D02*
X0027974Y0031107D01*
X0027974Y0030335D02*
X0027974Y0030335D01*
X0027974Y0030308D02*
X0027974Y0030308D01*
X0027974Y0029509D02*
X0027974Y0029509D01*
X0027974Y0028711D02*
X0027974Y0028711D01*
X0027974Y0027912D02*
X0027974Y0027912D01*
X0029371Y0027912D02*
X0029529Y0027912D01*
X0030926Y0027912D02*
X0030926Y0027912D01*
X0030926Y0028711D02*
X0030926Y0028711D01*
X0030926Y0029509D02*
X0030926Y0029509D01*
X0030926Y0030308D02*
X0030926Y0030308D01*
X0030926Y0031107D02*
X0030926Y0031107D01*
X0030926Y0031905D02*
X0030926Y0031905D01*
X0030926Y0032704D02*
X0030926Y0032704D01*
X0030926Y0033502D02*
X0030926Y0033502D01*
X0030926Y0034301D02*
X0030926Y0034301D01*
X0030926Y0035099D02*
X0030926Y0035099D01*
X0030926Y0035898D02*
X0030926Y0035898D01*
X0030926Y0036696D02*
X0030926Y0036696D01*
X0030926Y0037495D02*
X0030926Y0037495D01*
X0030926Y0038293D02*
X0030926Y0038293D01*
X0033879Y0038293D02*
X0033879Y0038293D01*
X0033879Y0037495D02*
X0033879Y0037495D01*
X0033879Y0036696D02*
X0033879Y0036696D01*
X0033879Y0035898D02*
X0033879Y0035898D01*
X0033879Y0035099D02*
X0033879Y0035099D01*
X0033879Y0034301D02*
X0033879Y0034301D01*
X0033879Y0033502D02*
X0033879Y0033502D01*
X0033879Y0032704D02*
X0033879Y0032704D01*
X0033879Y0031905D02*
X0033879Y0031905D01*
X0033879Y0031107D02*
X0033879Y0031107D01*
X0033879Y0030308D02*
X0033879Y0030308D01*
X0033879Y0029509D02*
X0033879Y0029509D01*
X0033879Y0028711D02*
X0033879Y0028711D01*
X0033879Y0027912D02*
X0033879Y0027912D01*
X0032482Y0027912D02*
X0032324Y0027912D01*
X0035277Y0027912D02*
X0040739Y0027912D01*
X0041031Y0028711D02*
X0036150Y0028711D01*
X0025539Y0024718D02*
X0047239Y0024718D01*
X0047239Y0023920D02*
X0025539Y0023920D01*
X0025539Y0023121D02*
X0047594Y0023121D01*
X0048016Y0022390D02*
X0048016Y0022390D01*
X0048132Y0022323D02*
X0024810Y0022323D01*
X0030656Y0044681D02*
X0035201Y0044681D01*
X0062000Y0047875D02*
X0063971Y0047875D01*
X0063948Y0047077D02*
X0081639Y0047077D01*
X0081639Y0047875D02*
X0066507Y0047875D01*
X0066214Y0046340D02*
X0066214Y0046340D01*
X0066300Y0046278D02*
X0081639Y0046278D01*
X0081639Y0046276D02*
X0082928Y0044988D01*
X0084750Y0044988D01*
X0086039Y0046276D01*
X0086039Y0048099D01*
X0084750Y0049388D01*
X0082928Y0049388D01*
X0081639Y0048099D01*
X0081639Y0046276D01*
X0082436Y0045480D02*
X0067399Y0045480D01*
X0068498Y0044681D02*
X0107839Y0044681D01*
X0107839Y0043883D02*
X0069573Y0043883D01*
X0069546Y0043920D02*
X0069546Y0043920D01*
X0069546Y0043920D01*
X0070153Y0043084D02*
X0107839Y0043084D01*
X0107839Y0042286D02*
X0070733Y0042286D01*
X0071313Y0041487D02*
X0107839Y0041487D01*
X0107839Y0040689D02*
X0071893Y0040689D01*
X0071966Y0040588D02*
X0071966Y0040588D01*
X0072193Y0039890D02*
X0107839Y0039890D01*
X0107839Y0039092D02*
X0072453Y0039092D01*
X0072712Y0038293D02*
X0107839Y0038293D01*
X0107839Y0037495D02*
X0072972Y0037495D01*
X0073231Y0036696D02*
X0107839Y0036696D01*
X0107839Y0035898D02*
X0073239Y0035898D01*
X0073239Y0035099D02*
X0107839Y0035099D01*
X0107839Y0034301D02*
X0073239Y0034301D01*
X0073239Y0033502D02*
X0107839Y0033502D01*
X0107839Y0032704D02*
X0073239Y0032704D01*
X0073239Y0031905D02*
X0076345Y0031905D01*
X0076953Y0032513D02*
X0075664Y0031224D01*
X0075664Y0029401D01*
X0076690Y0028375D01*
X0075939Y0027624D01*
X0075939Y0026013D01*
X0075078Y0026013D01*
X0073789Y0024724D01*
X0073789Y0022901D01*
X0075078Y0021613D01*
X0076900Y0021613D01*
X0078189Y0022901D01*
X0078189Y0024513D01*
X0079050Y0024513D01*
X0080339Y0025801D01*
X0080339Y0027624D01*
X0079313Y0028650D01*
X0080064Y0029401D01*
X0080064Y0031224D01*
X0078775Y0032513D01*
X0076953Y0032513D01*
X0075664Y0031107D02*
X0073239Y0031107D01*
X0073239Y0030308D02*
X0075664Y0030308D01*
X0075664Y0029509D02*
X0073239Y0029509D01*
X0073239Y0028711D02*
X0076354Y0028711D01*
X0076227Y0027912D02*
X0073239Y0027912D01*
X0073239Y0027114D02*
X0075939Y0027114D01*
X0075939Y0026315D02*
X0073239Y0026315D01*
X0073239Y0025517D02*
X0074582Y0025517D01*
X0073789Y0024718D02*
X0073239Y0024718D01*
X0073239Y0023920D02*
X0073789Y0023920D01*
X0073789Y0023121D02*
X0072884Y0023121D01*
X0072462Y0022390D02*
X0072462Y0022390D01*
X0072462Y0022390D01*
X0072346Y0022323D02*
X0074367Y0022323D01*
X0077610Y0022323D02*
X0107839Y0022323D01*
X0107839Y0023121D02*
X0078189Y0023121D01*
X0078189Y0023920D02*
X0107839Y0023920D01*
X0107839Y0024718D02*
X0079256Y0024718D01*
X0080054Y0025517D02*
X0107839Y0025517D01*
X0107839Y0026315D02*
X0080339Y0026315D01*
X0080339Y0027114D02*
X0107839Y0027114D01*
X0107839Y0027912D02*
X0080050Y0027912D01*
X0079373Y0028711D02*
X0107839Y0028711D01*
X0107839Y0029509D02*
X0080064Y0029509D01*
X0080064Y0030308D02*
X0107839Y0030308D01*
X0107839Y0031107D02*
X0080064Y0031107D01*
X0079383Y0031905D02*
X0107839Y0031905D01*
X0107839Y0018330D02*
X0100333Y0018330D01*
X0101131Y0017532D02*
X0107839Y0017532D01*
X0107839Y0016733D02*
X0101339Y0016733D01*
X0101339Y0015935D02*
X0107839Y0015935D01*
X0097945Y0018330D02*
X0096733Y0018330D01*
X0107839Y0045480D02*
X0085242Y0045480D01*
X0086039Y0046278D02*
X0107839Y0046278D01*
X0107839Y0047077D02*
X0086039Y0047077D01*
X0086039Y0047875D02*
X0107839Y0047875D01*
X0107839Y0048674D02*
X0085464Y0048674D01*
X0086114Y0051713D02*
X0084364Y0051713D01*
X0082747Y0052383D01*
X0081509Y0053620D01*
X0080839Y0055238D01*
X0080839Y0056988D01*
X0081509Y0058605D01*
X0082747Y0059843D01*
X0084364Y0060513D01*
X0086114Y0060513D01*
X0087731Y0059843D01*
X0088969Y0058605D01*
X0089639Y0056988D01*
X0089639Y0055238D01*
X0088969Y0053620D01*
X0087731Y0052383D01*
X0086114Y0051713D01*
X0086489Y0051868D02*
X0105423Y0051868D01*
X0104624Y0052666D02*
X0088015Y0052666D01*
X0088814Y0053465D02*
X0104289Y0053465D01*
X0104289Y0054263D02*
X0103701Y0054263D01*
X0103650Y0054213D02*
X0104939Y0055501D01*
X0104939Y0057324D01*
X0103650Y0058613D01*
X0101828Y0058613D01*
X0100539Y0057324D01*
X0100539Y0055501D01*
X0101828Y0054213D01*
X0103650Y0054213D01*
X0104499Y0055062D02*
X0104527Y0055062D01*
X0104939Y0055860D02*
X0105325Y0055860D01*
X0104939Y0056659D02*
X0107839Y0056659D01*
X0107839Y0057457D02*
X0104806Y0057457D01*
X0104007Y0058256D02*
X0107839Y0058256D01*
X0107839Y0059054D02*
X0088520Y0059054D01*
X0089114Y0058256D02*
X0101471Y0058256D01*
X0100672Y0057457D02*
X0089444Y0057457D01*
X0089639Y0056659D02*
X0100539Y0056659D01*
X0100539Y0055860D02*
X0089639Y0055860D01*
X0089566Y0055062D02*
X0100979Y0055062D01*
X0101777Y0054263D02*
X0089235Y0054263D01*
X0083989Y0051868D02*
X0069639Y0051868D01*
X0069639Y0052666D02*
X0082463Y0052666D01*
X0081664Y0053465D02*
X0069441Y0053465D01*
X0069111Y0054263D02*
X0081242Y0054263D01*
X0080912Y0055062D02*
X0068512Y0055062D01*
X0067689Y0055860D02*
X0080839Y0055860D01*
X0080839Y0056659D02*
X0068008Y0056659D01*
X0068806Y0057457D02*
X0081033Y0057457D01*
X0081364Y0058256D02*
X0069232Y0058256D01*
X0069563Y0059054D02*
X0081958Y0059054D01*
X0082771Y0059853D02*
X0069639Y0059853D01*
X0069639Y0060651D02*
X0107839Y0060651D01*
X0107839Y0059853D02*
X0087707Y0059853D01*
X0082214Y0048674D02*
X0068023Y0048674D01*
X0068821Y0049472D02*
X0107839Y0049472D01*
X0107839Y0050271D02*
X0069238Y0050271D01*
X0069569Y0051069D02*
X0107839Y0051069D01*
X0107839Y0051868D02*
X0107555Y0051868D01*
X0107653Y0055860D02*
X0107839Y0055860D01*
X0062455Y0048674D02*
X0062126Y0048674D01*
X0027400Y0102973D02*
X0026478Y0102973D01*
D13*
X0023464Y0098700D02*
X0018364Y0093600D01*
X0015551Y0093600D01*
X0040451Y0098700D02*
X0043051Y0096100D01*
X0043639Y0091413D01*
M02*
